<svg width="50" height="50" viewBox="0 0 50 50" fill="none" xmlns="http://www.w3.org/2000/svg">
<path d="M25.0002 0.111084C20.0777 0.111084 15.2657 1.57079 11.1727 4.30562C7.07975 7.04044 3.88967 10.9276 2.00589 15.4754C0.122112 20.0233 -0.370771 25.0276 0.589572 29.8556C1.54992 34.6835 3.92035 39.1183 7.40113 42.5991C10.8819 46.0798 15.3167 48.4503 20.1446 49.4106C24.9726 50.371 29.9769 49.8781 34.5248 47.9943C39.0726 46.1105 42.9598 42.9205 45.6946 38.8275C48.4294 34.7345 49.8891 29.9225 49.8891 25C49.8891 18.399 47.2669 12.0684 42.5993 7.40087C37.9318 2.7333 31.6012 0.111084 25.0002 0.111084ZM34.6447 33.0578C34.5317 33.2287 34.386 33.3757 34.216 33.4902C34.046 33.6047 33.855 33.6845 33.6541 33.725C33.4532 33.7655 33.2462 33.7658 33.0452 33.7261C32.8441 33.6863 32.6529 33.6072 32.4825 33.4933L23.3047 27.2711V13.7222C23.3047 13.3096 23.4686 12.914 23.7603 12.6223C24.052 12.3305 24.4477 12.1666 24.8602 12.1666C25.2728 12.1666 25.6685 12.3305 25.9602 12.6223C26.2519 12.914 26.4158 13.3096 26.4158 13.7222V25.6222L34.1936 30.8955C34.3658 31.0073 34.5142 31.1521 34.6302 31.3215C34.7462 31.4909 34.8276 31.6817 34.8695 31.8827C34.9114 32.0837 34.9132 32.291 34.8746 32.4927C34.836 32.6944 34.7579 32.8864 34.6447 33.0578ZM34.1002 9.80219C31.9115 8.48295 29.4633 7.6528 26.9236 7.3687C24.3838 7.08461 21.8127 7.35328 19.3866 8.1563C16.9604 8.95932 14.7367 10.2777 12.868 12.0209C10.9993 13.7641 9.52985 15.891 8.56041 18.2556C7.59098 20.6201 7.14454 23.1664 7.25171 25.7197C7.35889 28.2731 8.01716 30.773 9.18134 33.048C10.3455 35.323 11.9881 37.3192 13.9963 38.8997C16.0045 40.4802 18.3309 41.6075 20.8158 42.2044L20.3336 44.6466C17.4837 43.9833 14.8117 42.7094 12.5021 40.913C10.1925 39.1165 8.30024 36.8402 6.95599 34.2412C5.61173 31.6422 4.8475 28.7825 4.71605 25.8594C4.58459 22.9363 5.08905 20.0195 6.19459 17.3104C7.30014 14.6012 8.98043 12.1642 11.1195 10.1677C13.2585 8.17115 15.8054 6.66258 18.5842 5.74613C21.363 4.82968 24.3076 4.52719 27.2147 4.85953C30.1218 5.19187 32.9222 6.15113 35.4225 7.67108L34.1002 9.80219Z" fill="#0F53BA"/>
</svg>
