<svg width="50" height="50" viewBox="0 0 50 50" fill="none" xmlns="http://www.w3.org/2000/svg">
<path d="M25.0002 0.111084C20.0777 0.111084 15.2657 1.57079 11.1727 4.30562C7.07975 7.04044 3.88967 10.9276 2.00589 15.4754C0.122112 20.0233 -0.370771 25.0276 0.589572 29.8556C1.54992 34.6835 3.92035 39.1183 7.40113 42.5991C10.8819 46.0798 15.3167 48.4503 20.1446 49.4106C24.9726 50.371 29.9769 49.8781 34.5248 47.9943C39.0726 46.1105 42.9598 42.9205 45.6946 38.8275C48.4294 34.7345 49.8891 29.9225 49.8891 25C49.8891 18.399 47.2669 12.0684 42.5993 7.40087C37.9318 2.7333 31.6012 0.111084 25.0002 0.111084ZM41.2558 16.6466L20.8158 37.0711L8.74467 25C8.33211 24.5874 8.10034 24.0279 8.10034 23.4444C8.10034 22.861 8.33211 22.3014 8.74467 21.8889C9.15723 21.4763 9.71678 21.2445 10.3002 21.2445C10.8837 21.2445 11.4432 21.4763 11.8558 21.8889L20.8469 30.88L38.1758 13.5666C38.3801 13.3624 38.6226 13.2003 38.8895 13.0898C39.1564 12.9792 39.4424 12.9223 39.7313 12.9223C40.0202 12.9223 40.3063 12.9792 40.5732 13.0898C40.8401 13.2003 41.0826 13.3624 41.2869 13.5666C41.4912 13.7709 41.6532 14.0134 41.7638 14.2803C41.8743 14.5472 41.9312 14.8333 41.9312 15.1222C41.9312 15.4111 41.8743 15.6972 41.7638 15.9641C41.6532 16.231 41.4912 16.4735 41.2869 16.6777L41.2558 16.6466Z" fill="#3DA758"/>
</svg>
