<svg width="54" height="50" viewBox="0 0 54 50" fill="none" xmlns="http://www.w3.org/2000/svg">
<path d="M52.8226 42.4378L31.2159 2.6778C30.7858 1.8854 30.1498 1.22378 29.375 0.762742C28.6002 0.301705 27.7153 0.0583496 26.8137 0.0583496C25.9121 0.0583496 25.0272 0.301705 24.2524 0.762742C23.4776 1.22378 22.8416 1.8854 22.4115 2.6778L0.820348 42.4378C0.393384 43.2023 0.174299 44.0654 0.18494 44.941C0.195582 45.8166 0.435577 46.6741 0.880995 47.428C1.32641 48.1819 1.96169 48.8058 2.72347 49.2376C3.48526 49.6695 4.34693 49.894 5.22257 49.8889H48.4203C49.2871 49.888 50.1387 49.6623 50.8921 49.2337C51.6454 48.8051 52.2747 48.1883 52.7183 47.4437C53.1619 46.6992 53.4047 45.8522 53.423 44.9856C53.4413 44.1191 53.2344 43.2627 52.8226 42.5V42.4378ZM24.8226 12.5556C24.8226 11.978 25.052 11.4241 25.4604 11.0157C25.8688 10.6072 26.4228 10.3778 27.0003 10.3778C27.5779 10.3778 28.1319 10.6072 28.5403 11.0157C28.9487 11.4241 29.1781 11.978 29.1781 12.5556V31.2222C29.1781 31.7998 28.9487 32.3538 28.5403 32.7622C28.1319 33.1706 27.5779 33.4 27.0003 33.4C26.4228 33.4 25.8688 33.1706 25.4604 32.7622C25.052 32.3538 24.8226 31.7998 24.8226 31.2222V12.5556ZM27.0003 43.4334C26.4466 43.4334 25.9052 43.2691 25.4448 42.9615C24.9843 42.6538 24.6254 42.2165 24.4135 41.7049C24.2016 41.1932 24.1461 40.6303 24.2542 40.0871C24.3622 39.544 24.6289 39.045 25.0204 38.6535C25.412 38.2619 25.9109 37.9952 26.4541 37.8872C26.9972 37.7791 27.5602 37.8346 28.0719 38.0465C28.5835 38.2584 29.0208 38.6173 29.3285 39.0778C29.6361 39.5382 29.8003 40.0796 29.8003 40.6334C29.8003 41.0011 29.7279 41.3652 29.5872 41.7049C29.4465 42.0446 29.2403 42.3533 28.9802 42.6133C28.7202 42.8733 28.4116 43.0795 28.0719 43.2202C27.7321 43.3609 27.368 43.4334 27.0003 43.4334Z" fill="#F0B345"/>
</svg>
